<svg width="115" height="26" viewBox="0 0 115 26" fill="none" xmlns="http://www.w3.org/2000/svg">
<path d="M13.352 1.032L10.44 12.744C11.624 10.376 13.352 8.68 15.88 8.68C18.728 8.68 20.296 10.92 20.296 14.12C20.296 19.816 16.456 25.32 11.016 25.32C8.808 25.32 6.888 24.392 6.152 22.408C4.616 24.36 2.472 25.128 0.232 25.224C0.936 23.24 1.48 21.032 2.184 18.184L5.576 4.616C5.832 3.624 5.96 3.016 5.96 2.536C5.96 1.864 5.672 1.544 5.128 1.096V1.032H13.352ZM13.352 13.16C13.352 12.072 13.064 11.528 12.424 11.528C11.336 11.528 10.376 13.032 9.864 15.112L8.712 19.784C8.424 20.936 8.264 21.864 8.264 22.568C8.264 23.688 8.616 24.232 9.256 24.232C11.336 24.232 13.352 16.584 13.352 13.16ZM24.407 4.456C24.407 2.344 26.103 0.679998 28.247 0.679998C30.295 0.679998 31.703 2.152 31.703 4.072C31.703 6.152 30.007 7.848 27.863 7.848C25.815 7.848 24.407 6.376 24.407 4.456ZM30.519 9L27.351 21.672C27.287 21.896 27.255 22.12 27.255 22.312C27.255 22.952 27.575 23.336 28.215 23.336C28.535 23.336 28.919 23.272 29.367 23.08V23.144C27.895 24.84 26.135 25.32 24.567 25.32C21.783 25.32 20.631 23.688 20.631 21.704C20.631 21.256 20.695 20.776 20.791 20.296L22.711 12.584C22.967 11.496 23.159 10.856 23.159 10.376C23.159 9.832 22.935 9.512 22.423 9.064V9H30.519ZM39.8903 9.8L37.1703 20.904C37.1383 21.096 37.1063 21.32 37.1063 21.48C37.1063 22.44 37.7463 23.016 38.6423 23.016C39.2503 23.016 39.9543 22.76 40.6903 22.184L40.7223 22.28C39.2823 24.296 37.5543 25.32 34.8983 25.32C31.8903 25.32 30.3863 23.656 30.3863 21.352C30.3863 20.84 30.4823 20.296 30.6103 19.752L33.0743 9.8H31.9223L32.0503 9.256C35.6983 8.424 38.7703 6.664 41.1383 3.4H41.4903L40.0823 9H43.3783L43.0263 9.8H39.8903ZM47.9723 25.32C44.1323 25.32 41.3803 23.048 41.3803 18.984C41.3803 13.704 46.0523 8.648 52.3243 8.648C55.4923 8.648 57.3162 10.088 57.3162 12.168C57.3162 15.72 53.2843 17.064 48.2603 17.128C48.1963 17.64 48.1643 18.12 48.1643 18.6C48.1643 21.16 49.6683 22.376 51.4923 22.376C52.9963 22.376 54.0523 21.832 55.3323 20.424H55.5563C53.9563 23.592 51.5243 25.32 47.9723 25.32ZM52.1963 9.16C50.9483 9.16 48.9323 13.224 48.3243 16.744C51.1723 16.072 52.7403 12.488 52.7403 10.056C52.7403 9.48 52.5483 9.16 52.1963 9.16ZM58.2853 14.824C58.2853 11.496 61.6453 8.68 65.9013 8.68C69.2293 8.68 71.3413 9.864 71.3413 11.784C71.3413 13.096 70.1573 13.896 68.7813 13.896C67.8533 13.896 67.0213 13.544 66.6053 13C67.3413 12.808 67.6933 11.976 67.6933 11.144C67.6933 10.056 67.0213 9.192 65.5173 9.192C64.1733 9.192 63.0853 9.96 63.0853 11.208C63.0853 12.2 63.7253 12.744 65.6453 13.736C69.2293 15.56 70.4773 16.616 70.4773 19.144C70.4773 22.632 67.0213 25.32 62.4133 25.32C58.2853 25.32 55.9492 23.656 55.9492 21.608C55.9492 20.168 57.1653 19.368 58.7653 19.368C59.5973 19.368 60.4293 19.72 60.9733 20.232C60.2693 20.264 59.6933 20.904 59.6933 22.024C59.6933 23.592 60.8773 24.808 62.7973 24.808C64.3653 24.808 65.4853 24.072 65.4853 22.792C65.4853 21.672 64.7812 21 62.6373 19.976C59.7253 18.568 58.2853 17.256 58.2853 14.824ZM75.3133 4.456C75.3133 2.344 77.0093 0.679998 79.1533 0.679998C81.2013 0.679998 82.6093 2.152 82.6093 4.072C82.6093 6.152 80.9133 7.848 78.7693 7.848C76.7213 7.848 75.3133 6.376 75.3133 4.456ZM81.4253 9L78.2573 21.672C78.1933 21.896 78.1613 22.12 78.1613 22.312C78.1613 22.952 78.4813 23.336 79.1213 23.336C79.4413 23.336 79.8253 23.272 80.2733 23.08V23.144C78.8013 24.84 77.0413 25.32 75.4733 25.32C72.6893 25.32 71.5373 23.688 71.5373 21.704C71.5373 21.256 71.6013 20.776 71.6973 20.296L73.6173 12.584C73.8733 11.496 74.0653 10.856 74.0653 10.376C74.0653 9.832 73.8413 9.512 73.3293 9.064V9H81.4253ZM90.5085 25.32C86.0925 25.32 85.5485 20.104 82.2205 20.104C81.3885 20.104 80.7485 20.648 80.7485 21.544C80.7485 23.4 83.1805 23.752 85.0045 23.432C84.6205 24.68 83.6925 25.32 82.6045 25.32C81.3245 25.32 80.1405 24.424 80.1405 22.504C80.1405 19.24 82.7965 17.256 88.7165 16.968C90.2205 16.904 91.6285 16.712 92.8445 16.456C90.2845 16.296 88.9085 14.952 85.8685 14.952C84.5885 14.952 82.8285 15.24 82.0925 16.744H82.0285C83.4045 10.984 85.6445 8.68 88.7165 8.68C93.0365 8.68 93.4525 14.12 96.5885 14.12C97.1965 14.12 97.6445 13.704 97.6445 12.968C97.6445 11.432 95.6925 10.536 93.9965 10.792C94.3805 9.544 95.1805 8.936 96.1725 8.936C97.4205 8.936 98.3805 9.96 98.3805 11.432C98.3805 16.2 93.8365 17.128 89.1005 17.416C87.8525 17.48 86.6685 17.64 85.6445 17.832C88.3965 17.928 89.9645 19.24 93.1965 19.24C94.6365 19.24 96.3645 19.016 96.8765 17.448H96.9405C96.6205 23.048 93.8685 25.32 90.5085 25.32ZM104.754 25.32C100.914 25.32 98.1615 23.048 98.1615 18.984C98.1615 13.704 102.834 8.648 109.106 8.648C112.274 8.648 114.097 10.088 114.097 12.168C114.097 15.72 110.066 17.064 105.042 17.128C104.978 17.64 104.946 18.12 104.946 18.6C104.946 21.16 106.45 22.376 108.274 22.376C109.778 22.376 110.834 21.832 112.114 20.424H112.338C110.738 23.592 108.306 25.32 104.754 25.32ZM108.978 9.16C107.73 9.16 105.714 13.224 105.106 16.744C107.954 16.072 109.522 12.488 109.522 10.056C109.522 9.48 109.33 9.16 108.978 9.16Z" fill="#990F54"/>
</svg>
